<svg xmlns="http://www.w3.org/2000/svg" version="1.1" xmlns:xlink="http://www.w3.org/1999/xlink" xmlns:svgjs="http://svgjs.dev/svgjs" width="1500" height="1500" viewBox="0 0 1500 1500"><rect width="1500" height="1500" fill="#ffffff"></rect><g transform="matrix(0.6666666666666666,0,0,0.6666666666666666,249.3941256034646,661.8575787131257)"><svg viewBox="0 0 396 69" data-background-color="#ffffff" preserveAspectRatio="xMidYMid meet" height="261" width="1500" xmlns="http://www.w3.org/2000/svg" xmlns:xlink="http://www.w3.org/1999/xlink"><g id="tight-bounds" transform="matrix(1,0,0,1,0.2399262610280175,0.4530291310018697)"><svg viewBox="0 0 395.52 68.09379426005228" height="68.09379426005228" width="395.52"><g><svg viewBox="0 0 495.37333776020296 85.28481528964059" height="68.09379426005228" width="395.52"><g transform="matrix(1,0,0,1,0,11.78683047780127)"><svg viewBox="0 0 395.52 61.71115433403805" height="61.71115433403805" width="395.52"><g id="textblocktransform"><svg viewBox="0 0 395.52 61.71115433403805" height="61.71115433403805" width="395.52" id="textblock"><g><svg viewBox="0 0 395.52 61.71115433403805" height="61.71115433403805" width="395.52"><g transform="matrix(1,0,0,1,0,0)"><svg width="395.52" viewBox="1.38 -33.25 295.59000000000003 46.129999999999995" height="61.71115433403805" data-palette-color="#2257bf"><path d="M24.25-24L10.56 12.88 6.38 12.88 11 1.25 1.38-24 5.63-24 13-4.13 20.38-24 24.25-24ZM39.62 0.56Q34.19 0.56 31.15-2.81 28.12-6.19 28.12-11.88L28.12-11.88Q28.12-17.63 31.22-20.97 34.31-24.31 39.81-24.31L39.81-24.31Q45.31-24.31 48.31-21 51.31-17.69 51.31-11.94L51.31-11.94Q51.31-6.31 48.19-2.88 45.06 0.56 39.62 0.56L39.62 0.56ZM39.81-21.13Q36.25-21.13 34.28-18.5 32.31-15.88 32.31-11.88L32.31-11.88Q32.31-7.88 34.28-5.31 36.25-2.75 39.81-2.75L39.81-2.75Q43.31-2.75 45.25-5.34 47.19-7.94 47.19-11.88L47.19-11.88Q47.19-15.88 45.22-18.5 43.25-21.13 39.81-21.13L39.81-21.13ZM73.25-15.38Q73.25-18.44 72.06-19.81 70.87-21.19 67.93-21.19L67.93-21.19Q65.18-21.19 61.5-19.44L61.5-19.44 61.5 0 57.43 0 57.43-33.25 61.5-33.25 61.5-22.44Q65.68-24.63 69.5-24.63L69.5-24.63Q73.25-24.63 75.31-22.41 77.37-20.19 77.37-16.31L77.37-16.31 77.37 0 73.25 0 73.25-15.38ZM91.81-20.81Q90.49-20.81 88.65-20.53 86.81-20.25 85.37-19.81L85.37-19.81 84.56-22.81Q88.74-24.25 92.37-24.25L92.37-24.25Q96.43-24.25 98.56-23L98.56-23Q100.43-21.63 101.15-20.06 101.87-18.5 101.87-15.5L101.87-15.5 101.87 0 98.81 0 97.93-2.25Q94.37 0.63 90.62 0.63L90.62 0.63Q87.37 0.63 85.15-1.25 82.93-3.13 82.93-6L82.93-6Q82.93-8.81 84.65-10.66 86.37-12.5 88.87-13.13L88.87-13.13Q92.06-13.94 97.81-14.06L97.81-14.06 97.81-14.25Q97.81-16.81 97.31-18L97.31-18Q96.31-20.81 91.81-20.81L91.81-20.81ZM91.18-2.63Q93.24-2.63 94.81-3.34 96.37-4.06 97.81-5.38L97.81-5.38 97.81-11.13Q93.49-11.06 91.43-10.63L91.43-10.63Q89.12-10.13 87.99-9.16 86.87-8.19 86.87-6.44L86.87-6.44Q86.87-4.63 88.15-3.63 89.43-2.63 91.18-2.63L91.18-2.63ZM124.49-15.25Q124.49-18.31 123.33-19.63 122.18-20.94 119.3-20.94L119.3-20.94Q116.24-20.94 112.68-19.25L112.68-19.25 112.68 0 108.62 0 108.62-24 111.43-24 112.3-22Q116.62-24.38 120.74-24.38L120.74-24.38Q124.55-24.38 126.55-22.22 128.55-20.06 128.55-16.25L128.55-16.25 128.55 0 124.49 0 124.49-15.25ZM151.18-15.25Q151.18-18.31 150.02-19.63 148.86-20.94 145.99-20.94L145.99-20.94Q142.93-20.94 139.36-19.25L139.36-19.25 139.36 0 135.3 0 135.3-24 138.11-24 138.99-22Q143.3-24.38 147.43-24.38L147.43-24.38Q151.24-24.38 153.24-22.22 155.24-20.06 155.24-16.25L155.24-16.25 155.24 0 151.18 0 151.18-15.25ZM171.61-24.31Q176.36-24.31 178.92-21.47 181.49-18.63 181.49-13.44L181.49-13.44 181.49-11.25 181.24-10.75 164.8-10.75Q164.8-7.69 167.11-5.06L167.11-5.06Q169.3-2.88 173.92-2.88L173.92-2.88Q176.99-2.88 179.74-3.81L179.74-3.81 180.49-0.81Q176.67 0.5 172.8 0.5L172.8 0.5Q166.99 0.5 163.92-2.63 160.86-5.75 160.86-11.56L160.86-11.56Q160.86-17.06 163.55-20.63L163.55-20.63Q166.42-24.31 171.61-24.31L171.61-24.31ZM177.36-14Q177.36-17.13 176.02-19.13 174.67-21.13 172.05-21.13L172.05-21.13Q168.74-21.13 166.99-19.13 165.24-17.13 164.86-14L164.86-14 177.36-14ZM194.8-2.88Q196.98-2.88 198.51-3.72 200.05-4.56 200.05-6.19L200.05-6.19Q200.05-7.5 198.92-8.25 197.8-9 194.17-10.5L194.17-10.5 191.8-11.44Q190.23-12.19 189.23-12.78 188.23-13.38 187.42-14.59 186.61-15.81 186.61-17.69L186.61-17.69Q186.61-21.06 189.39-22.69 192.17-24.31 196.23-24.31L196.23-24.31Q199.67-24.31 203.11-22.75L203.11-22.75 202.11-19.75Q199.3-20.94 196.67-20.94L196.67-20.94Q193.98-20.94 192.33-20.16 190.67-19.38 190.67-17.94L190.67-17.94Q190.67-16.5 191.83-15.69 192.98-14.88 195.8-13.81L195.8-13.81 197.86-13Q201.3-11.56 202.67-10 204.05-8.44 204.05-5.88L204.05-5.88Q204.05-3.25 201.61-1.34 199.17 0.56 195.11 0.56L195.11 0.56Q190.48 0.56 185.98-1.25L185.98-1.25 187.11-4.31Q191.17-2.88 194.8-2.88L194.8-2.88ZM213.73 0.25Q212.48 0.25 211.7-0.56 210.92-1.38 210.92-2.56L210.92-2.56Q210.92-3.75 211.7-4.56 212.48-5.38 213.73-5.38L213.73-5.38Q214.98-5.38 215.76-4.56 216.54-3.75 216.54-2.56L216.54-2.56Q216.54-1.38 215.76-0.56 214.98 0.25 213.73 0.25L213.73 0.25ZM234.1 0.5Q228.73 0.5 225.85-2.84 222.98-6.19 222.98-11.75L222.98-11.75Q222.98-17.88 226.42-21.31L226.42-21.31Q229.73-24.5 234.67-24.5L234.67-24.5Q237.98-24.5 240.29-23.38L240.29-23.38 240.29-33.25 244.54-33.25 244.54 0 241.54 0 240.85-1.69Q237.48 0.5 234.1 0.5L234.1 0.5ZM234.92-2.94Q236.6-2.94 237.76-3.28 238.92-3.63 240.29-4.38L240.29-4.38 240.29-20.25Q237.98-21.19 234.98-21.19L234.98-21.19Q231.1-21.19 229.13-18.69 227.17-16.19 227.17-12L227.17-12Q227.17-7.88 229.13-5.41 231.1-2.94 234.92-2.94L234.92-2.94ZM261.16-24.31Q265.91-24.31 268.48-21.47 271.04-18.63 271.04-13.44L271.04-13.44 271.04-11.25 270.79-10.75 254.35-10.75Q254.35-7.69 256.66-5.06L256.66-5.06Q258.85-2.88 263.48-2.88L263.48-2.88Q266.54-2.88 269.29-3.81L269.29-3.81 270.04-0.81Q266.23 0.5 262.35 0.5L262.35 0.5Q256.54 0.5 253.48-2.63 250.41-5.75 250.41-11.56L250.41-11.56Q250.41-17.06 253.1-20.63L253.1-20.63Q255.98-24.31 261.16-24.31L261.16-24.31ZM266.91-14Q266.91-17.13 265.57-19.13 264.23-21.13 261.6-21.13L261.6-21.13Q258.29-21.13 256.54-19.13 254.79-17.13 254.41-14L254.41-14 266.91-14ZM288.1 0L283.6 0 274.66-24 279.04-24 285.66-5.19 285.91-3.94 286.1-5.19 292.79-24 296.97-24 288.1 0Z" opacity="1" transform="matrix(1,0,0,1,0,0)" fill="#000000" class="wordmark-text-0" data-fill-palette-color="primary" id="text-0"></path></svg></g></svg></g></svg></g></svg></g><g transform="matrix(1,0,0,1,410.08852247056234,0)"><svg viewBox="0 0 85.28481528964058 85.28481528964059" height="85.28481528964059" width="85.28481528964058"><g><svg></svg></g><g id="icon-0"><svg viewBox="0 0 85.28481528964058 85.28481528964059" height="85.28481528964059" width="85.28481528964058"><g><path transform="scale(0.85285,0.85285)" d="M30 100c-16.569 0-30-13.431-30-30v-40c0-16.569 13.431-30 30-30h40c16.569 0 30 13.431 30 30v40c0 16.569-13.431 30-30 30z" fill="#000000" fill-rule="nonzero" stroke="none" stroke-width="1" stroke-linecap="butt" stroke-linejoin="miter" stroke-miterlimit="10" stroke-dasharray="" stroke-dashoffset="0" font-family="none" font-weight="none" font-size="none" text-anchor="none" style="mix-blend-mode: normal" data-fill-palette-color="accent"></path></g><g transform="matrix(1,0,0,1,17.05696305792811,24.79786953672139)"><svg viewBox="0 0 51.17088917378435 35.68907621619781" height="35.68907621619781" width="51.17088917378435"><g><svg xmlns="http://www.w3.org/2000/svg" xmlns:xlink="http://www.w3.org/1999/xlink" version="1.1" x="0" y="0" viewBox="1.012 8.212 47.625 33.215999999999994" enable-background="new 0 0 50 50" xml:space="preserve" height="35.68907621619781" width="51.17088917378435" class="icon-dxe-0" data-fill-palette-color="quaternary" id="dxe-0"><g fill="#ffffff" data-fill-palette-color="quaternary"><polygon fill="#ffffff" points="19.937,10.508 17.653,8.212 1.012,24.792 17.647,41.428 19.94,39.135 5.603,24.794  " data-fill-palette-color="quaternary"></polygon><polygon fill="#ffffff" points="29.714,10.508 44.046,24.794 29.711,39.135 32.004,41.428 48.637,24.792 32.001,8.212  " data-fill-palette-color="quaternary"></polygon></g></svg></g></svg></g></svg></g></svg></g></svg></g><defs></defs></svg><rect width="395.52" height="68.09379426005228" fill="none" stroke="none" visibility="hidden"></rect></g></svg></g></svg>